<?xml version="1.0" encoding="utf-8"?>
<!-- Textio Brandmark - Copyright © 2016 Textio, Inc. All rights reserved. -->
<svg version="1.1" id="textioLogo" xmlns="http://www.w3.org/2000/svg" xmlns:xlink="http://www.w3.org/1999/xlink" x="0px" y="0px"
	 viewBox="0 0 1394.8187 360" style="enable-background:new 0 0 1394.8187 360;" xml:space="preserve">
    <style type="text/css">
    	.st0{fill:#8C898B;}
    	.st1{fill:#D94C92;}
    	.st2{fill:#45B5E6;}
    	.st3{fill:#97C728;}
    	.st4{fill:#FA8926;}
    </style>
    <g id="brandmark">
    	<g id="word">
    		<path id="o" class="st0" d="M1294.7076,92.9695c57.4227,0,100.1111,41.7643,100.1111,100.3864
    			c0,58.6246-42.6884,100.3876-100.1111,100.3876c-57.4226,0-100.1111-41.763-100.1111-100.3876
    			C1194.5966,134.7338,1237.285,92.9695,1294.7076,92.9695z M1294.7076,133.2007c-35.0599,0-59.9911,24.522-59.9911,60.1552
    			c0,35.6345,24.9312,60.1577,59.9911,60.1577c35.0601,0,59.9911-24.5233,59.9911-60.1577
    			C1354.6987,157.7227,1329.7677,133.2007,1294.7076,133.2007z"/>
    		<path id="i-dot" class="st0" d="M1148.3241,19.3265c15.3856,0,26.8235,11.1902,26.8235,26.8972
    			c0,15.7077-11.4379,26.8976-26.8235,26.8976c-15.3857,0-26.8235-11.1899-26.8235-26.8976
    			C1121.5006,30.5167,1132.9384,19.3265,1148.3241,19.3265z"/>
    		<path id="i-line" class="st0" d="M1168.9576,101.5787v183.557c0,2.2061-1.7999,4.0111-4,4.0111h-33.2672c-2.2,0-4-1.805-4-4.0111
    			v-183.557c0-2.2061,1.8-4.0111,4-4.0111h33.2672C1167.1577,97.5676,1168.9576,99.3726,1168.9576,101.5787z"/>
    		<path id="t-second" class="st0" d="M1051.311,291.0619c-35.1517,0-54.2577-15.7105-54.2577-57.8555V132.8174h-21.4325
    			c-2.2,0-4-1.805-4-4.0111v-27.2276c0-2.2061,1.8-4.0111,4-4.0111h21.4325V50.235c0-2.2061,1.8-4.0111,4-4.0111h33.2672
    			c2.2001,0,4,1.805,4,4.0111v47.3325h46.4381c2.2,0,4,1.805,4,4.0111v27.2276c0,2.2061-1.8,4.0111-4,4.0111h-46.4381v97.7047
    			c0,13.4108,5.7322,20.3073,20.6324,20.3073c8.6185,0,15.2247-0.8643,24.8055-2.3436c2.5354-0.3915,4.6165,1.3905,4.6165,3.9629
    			l0.0001,30.1963c0,1.7101-1.3521,3.4507-3.0007,3.8879C1074.3583,289.4543,1062.5149,291.0619,1051.311,291.0619z"/>
    		<path id="x" class="st0" d="M862.0698,224.7756l-48.4726,62.8148c-0.6605,0.856-2.0841,1.5564-3.1635,1.5564h-39.916
    			c-4.4982,0-5.9191-2.9132-3.1573-6.4738l69.8713-90.0824l-68.7199-88.5485c-2.7636-3.561-1.3431-6.4746,3.1567-6.4746h40.2998
    			c1.0748,0,2.4946,0.6956,3.1553,1.5458l47.3271,60.909l46.9437-60.8969c0.6606-0.8569,2.0847-1.558,3.1647-1.558h39.915
    			c4.4967,0,5.9178,2.9128,3.1581,6.4729l-68.3461,88.1669l69.8959,90.4718c2.7482,3.5572,1.3253,6.4677-3.1621,6.4677h-40.3167
    			c-1.0793,0-2.503-0.7004-3.1635-1.5564L862.0698,224.7756z"/>
    		<path id="e" class="st0" d="M670.7077,92.9695c59.2253,0,92.8507,41.7643,92.8507,101.1529v7.8666c0,2.2061-1.8,4.0111-4,4.0111
    			H616.8309v0.3833c3.8222,32.5682,29.8057,48.6607,57.3155,48.6607c23.0632,0,40.6932-9.2927,53.7678-21.4309
    			c1.9838-1.8418,4.7641-1.3923,6.1313,0.9464l15.2927,26.159c0.9008,1.5409,0.566,3.7838-0.7458,4.9921
    			c-15.7562,14.5125-39.8972,28.0327-74.0626,28.0327c-61.1377,0-99.7307-40.6145-99.7307-99.6211
    			C574.7992,137.7988,611.8633,92.9695,670.7077,92.9695z M669.9432,129.7525c-30.1866,0-47.7612,17.2423-52.7288,44.8292h101.2571
    			C715.7972,148.1434,699.749,129.7525,669.9432,129.7525z"/>
    		<path id="t-first" class="st0" d="M519.6802,291.0619c-35.1543,0-54.2577-15.7105-54.2577-57.8555V132.8174h-21.4325
    			c-2.2,0-4-1.805-4-4.0111v-27.2276c0-2.2061,1.8-4.0111,4-4.0111h21.4325V50.235c0-2.2061,1.8-4.0111,4-4.0111h33.2673
    			c2.2,0,4,1.805,4,4.0111v47.3325h46.4355c2.2,0,4,1.805,4,4.0111v27.2276c0,2.2061-1.8,4.0111-4,4.0111h-46.4355v97.7047
    			c0,13.4108,5.7295,20.3073,20.6324,20.3073c8.6188,0,15.2231-0.8643,24.8057-2.3437c2.5353-0.3914,4.6164,1.3905,4.6164,3.9629
    			l0.0001,30.1964c0,1.7102-1.3521,3.4507-3.0008,3.888C542.7271,289.4543,530.8817,291.0619,519.6802,291.0619z"/>
    	</g>
    	<g id="loop">
    		<path id="magentaSegment" class="st1" d="M81.0024,80.2597c23.0042-23.0682,52.0223-36.4292,81.9935-40.085
    			c4.0024-0.4882,7.0015-3.9093,7.0015-7.9524V8.0315c0-4.7616-4.114-8.4834-8.8365-7.9871
    			C101.2736,6.338,48.3878,42.3731,20.4982,95.8871c-2.1996,4.2205-0.2634,9.4272,4.152,11.1802l22.4271,8.9042
    			c3.7547,1.4907,8.0259-0.0588,9.9581-3.6146C63.296,100.8363,71.2809,90.0082,81.0024,80.2597z"/>
    		<path id="blueSegment" class="st2" d="M39.7271,134.6236l-22.4408-8.9096c-4.4152-1.753-9.3806,0.713-10.6587,5.2992
    			c-16.207,58.1574-2.257,120.7345,37.1033,166.4357c3.1038,3.6038,8.6435,3.7149,11.8941,0.2437l16.5225-17.6436
    			c2.755-2.942,2.919-7.4941,0.3375-10.5904c-29.7309-35.6595-39.048-82.6336-27.9591-125.3905
    			C45.5396,140.1595,43.4717,136.1104,39.7271,134.6236z"/>
    		<path id="greenSegment" class="st3" d="M278.9926,278.8004c-49.533,49.6704-126.9414,54.3307-181.7167,13.9999
    			c-3.256-2.3974-7.7843-1.9747-10.5494,0.9781l-16.5235,17.6447c-3.2486,3.4691-2.7929,9.0031,0.9842,11.8842
    			c72.449,55.2632,176.2996,47.7708,239.9837-20.2347c11.2127-11.9736,20.7151-25.4077,28.2766-39.912
    			c2.2016-4.223,0.2693-9.4323-4.149-11.1865l-22.3808-8.8858c-3.7547-1.4907-8.0259,0.0588-9.9582,3.6146
    			C296.6989,258.2238,288.714,269.0518,278.9926,278.8004z"/>
    		<path id="orangeSegment" class="st4" d="M278.9926,80.2597c36.414,36.5156,48.5662,88.1393,36.4727,134.7473
    			c-1.0126,3.9027,1.0645,7.945,4.8036,9.4295l22.4071,8.8963c4.4123,1.7518,9.3755-0.7101,10.6566-5.2922
    			c24.5739-87.8945-20.6032-181.9672-107.1038-216.3105c-15.22-6.0429-31.164-9.956-47.3856-11.6682
    			c-4.7263-0.4989-8.8457,3.2207-8.8457,7.9863v24.1736c0,4.0431,2.9991,7.4642,7.0015,7.9524
    			C226.97,43.8302,255.9882,57.1916,278.9926,80.2597z"/>
    	</g>
    </g>
</svg>
