<?xml version="1.0" encoding="utf-8"?>
<!-- Generator: Adobe Illustrator 19.0.1, SVG Export Plug-In . SVG Version: 6.00 Build 0)  -->
<!DOCTYPE svg PUBLIC "-//W3C//DTD SVG 1.1//EN" "http://www.w3.org/Graphics/SVG/1.1/DTD/svg11.dtd">
<svg version="1.1" id="Layer_1" xmlns="http://www.w3.org/2000/svg" xmlns:xlink="http://www.w3.org/1999/xlink" x="0px" y="0px"
	 viewBox="0 0 325 136">
<style type="text/css">
	.st0{fill:#3A5675;}
	.st1{fill:#019CDB;}
</style>
<g>
	<g>
		<polygon class="st0" points="249.5,83.5 240.7,59.6 235,59.6 246.6,90 251.5,90 263.9,59.6 258.1,59.6 		"/>
		<path class="st0" d="M152.8,59.6c-0.5,0-1,0-1.4,0c-8.8,0.5-13.2,5.4-13.2,14.8c0,9.6,4.4,14.7,13.2,15.5c0.7,0.1,1.5,0.1,2.2,0.1
			c3.8,0,7.1-0.3,9.8-0.9v-4.3c-2.7,0.6-5.4,0.9-8.1,0.9c-1.5,0-2.8-0.1-4-0.3c-5.2-0.9-7.8-3.9-7.8-9h7.8h12.7
			C165.9,65.2,162.1,59.6,152.8,59.6z M159.2,71.9h-7.8h-7.8c0.3-5.1,2.9-7.8,7.8-8c0.2,0,0.4,0,0.5,0
			C157,63.9,159.5,66.6,159.2,71.9z"/>
		<path class="st0" d="M280.1,59.6c-0.2,0-0.5,0-0.7,0c-3.1,0-6.3,0.5-9.6,1.4v4.3c3.3-1,6.5-1.4,9.6-1.4c0.3,0,0.5,0,0.7,0
			c5,0.1,7.5,1.8,7.5,4.9v2.9c-2.1-0.4-4.6-0.6-7.5-0.6h-0.5c-8.2,0-12.3,3.1-12.3,9.4c0,6.3,3.8,9.5,11.4,9.5c0.5,0,0.9,0,1.4,0
			c3-0.2,5.6-0.9,8-2.1l2.1,2.1h2.7V69.4C292.9,63.1,288.7,59.8,280.1,59.6z M287.6,83.3c-1.9,1.4-4.4,2.2-7.5,2.4
			c-0.4,0-0.9,0-1.4,0c-4.1,0-6.1-1.7-6.1-5.2c0-3.3,2.3-4.9,7-4.9h0.5c3,0,5.4,0.2,7.5,0.6V83.3z"/>
		<path class="st0" d="M186.5,59.6c-3.7,0-7.4,1.3-11.1,3.9l-0.9-3.9h-3.6V90h5.4V67.9c2.8-2.6,5.7-3.9,8.8-3.9
			c4.5,0,6.7,2.3,6.7,6.8V90h5.4V71C197,63.4,193.5,59.6,186.5,59.6z"/>
		<path class="st0" d="M217.1,59.6c-9.7,0-14.5,5.1-14.5,15.2C203,85,207.8,90,217.1,90c9.6,0,14.5-5.1,14.5-15.2
			C231.6,64.7,226.7,59.6,217.1,59.6z M217.1,85.7c-6.1,0-9.1-3.7-9.1-11c0-7.2,3-10.7,9.1-10.7c6.1,0,9.1,3.6,9.1,10.7
			C226.2,82,223.2,85.7,217.1,85.7z"/>
	</g>
	<g>
		<path class="st1" d="M44.6,111.3c45,16,67.6-15.5,67.6-15.5l2-15.9C94.1,122.1,44.6,111.3,44.6,111.3z"/>
		<path class="st1" d="M108.8,40.2c0,0,6,15.8-37.4,33.9c-0.2,0.1-12.4,4.6-12.6,4.7l8.9,9.9c0,0,12.2-4.5,12.5-4.7
			c3.4-1.3,23.4-9.5,28.7-18.9C111.8,60.2,113.5,49.9,108.8,40.2z"/>
		<path class="st1" d="M55.9,56.3c9.3-5.5,17.6-7.4,26.4-6.6c0,0,9.4-8.9-0.8-15.4c0,0-15.6-6.4-35.3,8.9C29,56.7,31.4,74,33,78.4
			c2.7,7.6,6.9,12.9,18.7,17.5C51.7,95.8,26.4,73.7,55.9,56.3z"/>
	</g>
	<g>
		<path class="st0" d="M300.6,87.4c0-1.9,1-2.9,2.9-2.9c1.9,0,2.9,1,2.9,2.9c0,1.8-1,2.8-2.9,2.8C301.6,90.1,300.6,89.2,300.6,87.4z
			 M303.4,89.8c1.6,0,2.4-0.8,2.4-2.4c0-1.6-0.8-2.5-2.4-2.5c-1.6,0-2.4,0.8-2.4,2.5C301.1,89,301.8,89.8,303.4,89.8z M302.3,89.2
			v-3.6h1.5c0.7,0,1,0.3,1,0.9c0,0.5-0.3,0.8-1,1l1.2,1.7h-0.6l-1.1-1.6v-0.3c0.7-0.1,1-0.4,1-0.8c0-0.3-0.2-0.5-0.6-0.5h-1v3.2
			H302.3z"/>
	</g>
</g>
</svg>
