<?xml version="1.0" encoding="utf-8"?>
<!-- Generator: Adobe Illustrator 19.0.1, SVG Export Plug-In . SVG Version: 6.00 Build 0)  -->
<!DOCTYPE svg PUBLIC "-//W3C//DTD SVG 1.1//EN" "http://www.w3.org/Graphics/SVG/1.1/DTD/svg11.dtd">
<svg version="1.1" id="Layer_1" xmlns="http://www.w3.org/2000/svg" xmlns:xlink="http://www.w3.org/1999/xlink" x="0px" y="0px"
	 viewBox="0 0 584 208" style="enable-background:new 0 0 584 208;" xml:space="preserve">
<style type="text/css">
	.st0{clip-path:url(#SVGID_2_);fill-rule:evenodd;clip-rule:evenodd;fill:#C52D2F;}
	.st1{clip-path:url(#SVGID_4_);fill-rule:evenodd;clip-rule:evenodd;fill:#C52D2F;}
	.st2{clip-path:url(#SVGID_6_);fill-rule:evenodd;clip-rule:evenodd;fill:#C52D2F;}
	.st3{clip-path:url(#SVGID_8_);fill-rule:evenodd;clip-rule:evenodd;fill:#C52D2F;}
	.st4{clip-path:url(#SVGID_10_);fill-rule:evenodd;clip-rule:evenodd;fill:#4F5261;}
	.st5{clip-path:url(#SVGID_12_);fill-rule:evenodd;clip-rule:evenodd;fill:#C52D2F;}
	.st6{clip-path:url(#SVGID_14_);fill-rule:evenodd;clip-rule:evenodd;fill:#C52D2F;}
	.st7{clip-path:url(#SVGID_16_);fill-rule:evenodd;clip-rule:evenodd;fill:#4F5261;}
	.st8{clip-path:url(#SVGID_18_);fill-rule:evenodd;clip-rule:evenodd;fill:#4F5261;}
	.st9{clip-path:url(#SVGID_20_);fill-rule:evenodd;clip-rule:evenodd;fill:#C52D2F;}
	.st10{fill:#C52D2F;}
	.st11{fill:#FFFFFF;}
</style>
<g>
	<g>
		<g>
			<g>
				<defs>
					<path id="SVGID_1_" d="M252.5,124.6h-8.7V104c0-3.9-0.6-6.7-1.9-8.4c-1.2-1.7-3.3-2.6-6.2-2.6c-3.5,0-6.2,1.3-8.1,3.8v27.8
						h-8.7V66.8h8.7V89c2.7-2.3,5.7-3.4,8.9-3.4c10.6,0,16,6.1,16,18.4V124.6z"/>
				</defs>
				<clipPath id="SVGID_2_">
					<use xlink:href="#SVGID_1_"  style="overflow:visible;"/>
				</clipPath>
				<rect x="213.9" y="61.8" class="st0" width="43.6" height="67.8"/>
			</g>
		</g>
		<g>
			<g>
				<defs>
					<path id="SVGID_3_" d="M267.7,105.5c0,3.9,0.9,6.9,2.7,9.2c1.8,2.3,4.4,3.4,7.6,3.4s5.8-1.1,7.6-3.4c1.8-2.3,2.7-5.3,2.7-9.2
						c0-3.9-0.9-6.9-2.7-9.1c-1.8-2.2-4.4-3.4-7.6-3.4s-5.8,1.1-7.6,3.4C268.6,98.6,267.7,101.6,267.7,105.5z M258.8,105.5
						c0-2.8,0.4-5.4,1.3-7.8c0.9-2.4,2.2-4.5,3.9-6.3c1.7-1.8,3.7-3.2,6.1-4.2c2.4-1,5.1-1.5,8-1.5c2.9,0,5.6,0.5,7.9,1.5
						c2.4,1,4.4,2.4,6.1,4.2c1.7,1.8,3,3.9,3.9,6.3c0.9,2.4,1.4,5,1.4,7.8c0,2.8-0.4,5.4-1.3,7.8c-0.9,2.4-2.2,4.5-3.9,6.3
						c-1.7,1.8-3.7,3.2-6.1,4.2c-2.4,1-5.1,1.5-8,1.5c-3,0-5.7-0.5-8-1.5c-2.4-1-4.4-2.4-6.1-4.2s-3-3.9-3.9-6.3
						C259.2,110.9,258.8,108.3,258.8,105.5z"/>
				</defs>
				<clipPath id="SVGID_4_">
					<use xlink:href="#SVGID_3_"  style="overflow:visible;"/>
				</clipPath>
				<rect x="253.8" y="80.6" class="st1" width="48.6" height="49.8"/>
			</g>
		</g>
		<g>
			<g>
				<defs>
					<path id="SVGID_5_" d="M336.7,124.6h-8l-0.4-2.9c-2.6,2.4-5.6,3.6-9.2,3.6c-10.4,0-15.6-6-15.6-18V86.3h8.7v20.5
						c0,3.9,0.6,6.7,1.9,8.4c1.3,1.8,3.3,2.7,6.1,2.7c3.4,0,6-1.2,7.7-3.5v-28h8.7V124.6z"/>
				</defs>
				<clipPath id="SVGID_6_">
					<use xlink:href="#SVGID_5_"  style="overflow:visible;"/>
				</clipPath>
				<rect x="298.6" y="81.3" class="st2" width="43.2" height="49.1"/>
			</g>
		</g>
		<g>
			<g>
				<defs>
					<path id="SVGID_7_" d="M360.9,126.8l-5.3-0.8c-1.6,0.5-3,1.3-4,2.2c-1,1-1.5,2.1-1.5,3.5c0,1.7,0.9,3.1,2.7,4.2
						c1.8,1.1,4.3,1.6,7.6,1.6c3.2,0,5.8-0.5,7.8-1.5c2-1,3-2.4,3-4c0-1.5-0.9-2.6-2.6-3.4C366.7,127.9,364.2,127.3,360.9,126.8z
						 M358.8,92.2c-2.5,0-4.4,0.8-5.7,2.3c-1.3,1.5-2,3.6-2,6.2c0,2.6,0.7,4.7,2,6.2c1.3,1.5,3.2,2.3,5.7,2.3c2.5,0,4.4-0.8,5.7-2.3
						c1.3-1.6,2-3.7,2-6.3c0-2.6-0.7-4.7-2-6.2C363.2,93,361.3,92.2,358.8,92.2z M360.5,143.8c-3,0-5.6-0.3-7.9-0.9
						s-4.1-1.5-5.6-2.5c-1.5-1.1-2.6-2.3-3.4-3.6c-0.8-1.4-1.2-2.8-1.2-4.4c0-3.7,2.2-6.6,6.5-8.6c-2.4-1.3-3.6-3.1-3.6-5.3
						c0-2.3,1.3-4.1,4-5.4c-4.1-2.8-6.1-7-6.1-12.4c0-2.2,0.4-4.2,1.1-6c0.7-1.9,1.7-3.5,3.1-4.8c1.3-1.3,3-2.4,4.9-3.2
						c1.9-0.8,4.1-1.2,6.5-1.2c3.4,0,6.5,0.8,9,2.5c2.5-1.2,5.3-1.8,8.6-1.8h1.9l-0.7,5.6h-2.9c-0.9,0-1.9,0.1-2.9,0.2
						c1.8,2.5,2.7,5.4,2.7,8.6c0,2.1-0.3,4-1,5.8c-0.7,1.8-1.7,3.4-3,4.8c-1.3,1.4-3,2.5-4.9,3.3c-1.9,0.8-4.1,1.2-6.5,1.2
						c-1.6,0-3.1-0.2-4.5-0.5c-0.8,0.4-1.2,0.9-1.2,1.5c0,0.5,0.2,0.8,0.5,1.2c0.3,0.3,0.9,0.6,1.7,0.8c0.8,0.3,1.8,0.5,3.1,0.7
						s3,0.5,5,0.7c1.7,0.3,3.4,0.6,5.2,1c1.8,0.4,3.4,1,4.9,1.8c1.5,0.8,2.7,1.9,3.7,3.2c1,1.3,1.5,3.1,1.6,5.2
						c0,3.7-1.6,6.7-4.9,8.9C371,142.7,366.4,143.8,360.5,143.8z"/>
				</defs>
				<clipPath id="SVGID_8_">
					<use xlink:href="#SVGID_7_"  style="overflow:visible;"/>
				</clipPath>
				<rect x="337.5" y="80.6" class="st3" width="46.7" height="68.3"/>
			</g>
		</g>
		<g>
			<g>
				<defs>
					<path id="SVGID_9_" d="M467.7,93c-3,0-5.3,1.1-7,3.3c-1.7,2.2-2.5,5.3-2.5,9.2c0,4,0.8,7.1,2.5,9.3c1.7,2.2,4,3.3,7,3.3
						c3.1,0,5.5-1.2,7.4-3.5c1.8-2.3,2.7-5.4,2.7-9.1c0-3.7-0.9-6.7-2.7-9C473.3,94.1,470.8,93,467.7,93z M468.3,125.3
						c-4,0-7.4-1.3-10.2-3.8l-0.3,3h-8.1V66.8h8.7v22.1c2.5-2.2,5.8-3.3,9.9-3.3c2.8,0,5.3,0.5,7.6,1.5c2.3,1,4.2,2.4,5.8,4.2
						c1.6,1.8,2.8,3.9,3.7,6.3c0.9,2.4,1.3,5,1.3,7.8c0,2.8-0.4,5.4-1.3,7.8c-0.8,2.4-2.1,4.5-3.7,6.3c-1.6,1.8-3.5,3.2-5.8,4.2
						C473.7,124.8,471.2,125.3,468.3,125.3z"/>
				</defs>
				<clipPath id="SVGID_10_">
					<use xlink:href="#SVGID_9_"  style="overflow:visible;"/>
				</clipPath>
				<rect x="444.7" y="61.8" class="st4" width="47" height="68.6"/>
			</g>
		</g>
		<g>
			<g>
				<defs>
					<path id="SVGID_11_" d="M416.5,124.6h-8.7V104c0-3.9-0.6-6.7-1.9-8.4c-1.2-1.7-3.3-2.6-6.2-2.6c-3.5,0-6.2,1.3-8.1,3.8v27.8
						h-8.7V66.8h8.7V89c2.7-2.3,5.7-3.4,8.9-3.4c10.6,0,16,6.1,16,18.4V124.6z"/>
				</defs>
				<clipPath id="SVGID_12_">
					<use xlink:href="#SVGID_11_"  style="overflow:visible;"/>
				</clipPath>
				<rect x="377.9" y="61.8" class="st5" width="43.6" height="67.8"/>
			</g>
		</g>
		<g>
			<g>
				<defs>
					<path id="SVGID_13_" d="M443.3,118.2l-0.8,7.2h-6.6c-1.7,0-3.2-0.3-4.5-0.8c-1.3-0.5-2.4-1.2-3.2-2.1c-0.8-0.9-1.5-1.9-1.9-3.1
						c-0.4-1.2-0.6-2.5-0.6-3.9V93.4h-5.8l0.8-7.1h5V74.9l8.7-0.9v12.3h8.9v7.1h-8.9v18.2c0,1.6,0.1,2.8,0.2,3.7
						c0.1,0.9,0.4,1.6,0.8,2c0.4,0.4,1.1,0.7,1.9,0.8c0.9,0.1,2.1,0.2,3.6,0.2H443.3z"/>
				</defs>
				<clipPath id="SVGID_14_">
					<use xlink:href="#SVGID_13_"  style="overflow:visible;"/>
				</clipPath>
				<rect x="414.9" y="69" class="st6" width="33.5" height="61.4"/>
			</g>
		</g>
		<g>
			<g>
				<defs>
					<path id="SVGID_15_" d="M500.3,105.5c0,3.9,0.9,6.9,2.7,9.2c1.8,2.3,4.4,3.4,7.6,3.4c3.2,0,5.8-1.1,7.6-3.4
						c1.8-2.3,2.7-5.3,2.7-9.2c0-3.9-0.9-6.9-2.7-9.1c-1.8-2.2-4.4-3.4-7.6-3.4c-3.2,0-5.8,1.1-7.6,3.4
						C501.2,98.6,500.3,101.6,500.3,105.5z M491.4,105.5c0-2.8,0.4-5.4,1.3-7.8c0.9-2.4,2.2-4.5,3.9-6.3c1.7-1.8,3.7-3.2,6.1-4.2
						c2.4-1,5.1-1.5,8-1.5s5.6,0.5,7.9,1.5c2.4,1,4.4,2.4,6.1,4.2c1.7,1.8,3,3.9,3.9,6.3c0.9,2.4,1.4,5,1.4,7.8
						c0,2.8-0.4,5.4-1.3,7.8c-0.9,2.4-2.2,4.5-3.9,6.3c-1.7,1.8-3.7,3.2-6.1,4.2c-2.4,1-5.1,1.5-8,1.5c-3,0-5.7-0.5-8-1.5
						c-2.4-1-4.4-2.4-6.1-4.2c-1.7-1.8-3-3.9-3.9-6.3C491.8,110.9,491.4,108.3,491.4,105.5z"/>
				</defs>
				<clipPath id="SVGID_16_">
					<use xlink:href="#SVGID_15_"  style="overflow:visible;"/>
				</clipPath>
				<rect x="486.3" y="80.6" class="st7" width="48.6" height="49.8"/>
			</g>
		</g>
		<g>
			<g>
				<defs>
					<path id="SVGID_17_" d="M554.4,118.2l-0.8,7.2H547c-1.7,0-3.2-0.3-4.5-0.8c-1.3-0.5-2.4-1.2-3.2-2.1c-0.8-0.9-1.5-1.9-1.9-3.1
						c-0.4-1.2-0.6-2.5-0.6-3.9V93.4h-5.8l0.8-7.1h5V74.9l8.7-0.9v12.3h8.9v7.1h-8.9v18.2c0,1.6,0.1,2.8,0.2,3.7
						c0.1,0.9,0.4,1.6,0.8,2c0.4,0.4,1.1,0.7,1.9,0.8c0.9,0.1,2.1,0.2,3.6,0.2H554.4z"/>
				</defs>
				<clipPath id="SVGID_18_">
					<use xlink:href="#SVGID_17_"  style="overflow:visible;"/>
				</clipPath>
				<rect x="526" y="69" class="st8" width="33.5" height="61.4"/>
			</g>
		</g>
		<g>
			<g>
				<defs>
					<path id="SVGID_19_" d="M212.7,118.2l-0.8,7.2h-6.6c-1.7,0-3.2-0.3-4.5-0.8c-1.3-0.5-2.4-1.2-3.2-2.1c-0.8-0.9-1.5-1.9-1.9-3.1
						c-0.4-1.2-0.6-2.5-0.6-3.9V93.4h-5.8l0.8-7.1h5V74.9l8.7-0.9v12.3h8.9v7.1h-8.9v18.2c0,1.6,0.1,2.8,0.2,3.7
						c0.1,0.9,0.4,1.6,0.8,2c0.4,0.4,1.1,0.7,1.9,0.8c0.9,0.1,2.1,0.2,3.6,0.2H212.7z"/>
				</defs>
				<clipPath id="SVGID_20_">
					<use xlink:href="#SVGID_19_"  style="overflow:visible;"/>
				</clipPath>
				<rect x="184.3" y="69" class="st9" width="33.5" height="61.4"/>
			</g>
		</g>
	</g>
	<g>
		<path class="st10" d="M92.9,41.6c-35,0-63.4,28.4-63.4,63.4c0,35,28.4,63.4,63.4,63.4c35,0,63.4-28.4,63.4-63.4
			C156.3,70,127.9,41.6,92.9,41.6z"/>
		<g>
			<path class="st11" d="M76.5,109.2H74v18h0c0.9,1,1.4,2.3,1.4,3.7c0,1.8-0.8,3.4-2.1,4.4l-1.6-1.6c0.9-0.7,1.4-1.7,1.4-2.9
				c0-2-1.6-3.6-3.6-3.6s-3.6,1.6-3.6,3.6c0,1.2,0.6,2.2,1.4,2.8l-1.6,1.6c-1.3-1.1-2.1-2.6-2.1-4.4c0-1.4,0.5-2.7,1.4-3.7V99.1
				c0.1-1.1,0.9-1.9,2-1.9l51.4,0c1.1,0,1.9,0.9,2,1.9v28.1c0.9,1,1.4,2.3,1.4,3.7c0,1.8-0.8,3.4-2.1,4.4l-1.6-1.6
				c0.9-0.7,1.4-1.7,1.4-2.8c0-2-1.6-3.6-3.6-3.6s-3.6,1.6-3.6,3.6c0,1.2,0.6,2.2,1.4,2.9l-1.6,1.6c-1.3-1.1-2.1-2.7-2.1-4.4
				c0-1.4,0.5-2.7,1.4-3.7h0v-18h-2.6v38l1.7,1v3.1H93.7v-3.1l1.7-1h0v-11.5h-5.1v11.5l1.7,1v3.1l-17.2,0v-3.1l1.7-1L76.5,109.2z"/>
			<path class="st11" d="M92.9,68c3.6,0,6.8,1.3,8.8,3.2l1.6-2.2c-2.5-2.2-6.2-3.6-10.4-3.6l0,0c-4.2,0-7.9,1.4-10.4,3.7l1.6,2.2
				C86.1,69.3,89.3,68,92.9,68"/>
			<g>
				<path class="st11" d="M93,62.3c3.9,0,7.5,1.1,10.3,3.2c0.5,0.4,1,0.9,1.5,1.3l1.6-2.3c-3.1-3-7.9-5-13.3-5l0,0
					c-5.6,0-10.5,2-13.5,5.2l1.6,2.3c0.5-0.5,1.1-1.1,1.7-1.6C85.5,63.4,89.1,62.3,93,62.3"/>
			</g>
			<g>
				<path class="st11" d="M92.9,56.8c6.2,0,11.7,2.3,14.9,5.7l1.6-2.2c-3.8-3.7-9.8-6.2-16.5-6.2l0,0c-6.7,0-12.7,2.4-16.5,6.2
					l1.6,2.2C81.2,59,86.7,56.8,92.9,56.8"/>
			</g>
			<g>
				<path class="st11" d="M87.9,83.3c0,0.9-0.8,1.7-1.7,1.7c-0.9,0-1.7-0.8-1.7-1.7c0-0.9,0.8-1.7,1.7-1.7
					C87.2,81.6,87.9,82.3,87.9,83.3z"/>
				<path class="st11" d="M106,74.1H79.8c-1.1,0-1.9,0.9-1.9,1.9v17.1c0,1.1,0.9,1.9,1.9,1.9H106c1.1,0,1.9-0.9,1.9-1.9V76.1
					C107.9,75,107,74.1,106,74.1z M86.2,86.6c-1.8,0-3.3-1.5-3.3-3.3c0-1.8,1.5-3.3,3.3-3.3c1.8,0,3.3,1.5,3.3,3.3
					C89.6,85.1,88.1,86.6,86.2,86.6z M99.6,86.6c-1.8,0-3.3-1.5-3.3-3.3c0-1.8,1.5-3.3,3.3-3.3c1.8,0,3.3,1.5,3.3,3.3
					C102.9,85.1,101.4,86.6,99.6,86.6z"/>
				<path class="st11" d="M101.3,83.3c0,0.9-0.8,1.7-1.7,1.7c-0.9,0-1.7-0.8-1.7-1.7c0-0.9,0.8-1.7,1.7-1.7
					C100.5,81.6,101.3,82.3,101.3,83.3z"/>
			</g>
		</g>
	</g>
</g>
</svg>
