<?xml version="1.0" encoding="utf-8"?>
<!-- Generator: Adobe Illustrator 19.0.1, SVG Export Plug-In . SVG Version: 6.00 Build 0)  -->
<!DOCTYPE svg PUBLIC "-//W3C//DTD SVG 1.1//EN" "http://www.w3.org/Graphics/SVG/1.1/DTD/svg11.dtd">
<svg version="1.1" id="Layer_1" xmlns="http://www.w3.org/2000/svg" xmlns:xlink="http://www.w3.org/1999/xlink" x="0px" y="0px"
	 viewBox="0 0 496.5 82.6" style="enable-background:new 0 0 496.5 82.6;" xml:space="preserve">
<g>
	<g>
		<path d="M10.2,71.9v-8.3h6.6V23.5h-6.6v-8.3h26.2c12,0,19.4,5.6,19.4,15.3c0,6.4-3.7,10.3-8.4,12.1c6.7,1.9,11.5,6.6,11.5,13.2
			c0,10.4-8,16.1-21.1,16.1H10.2z M25.8,23.5V39h9.8c7.3,0,11.1-2.7,11.1-7.7c0-5.1-3.9-7.7-11.2-7.7H25.8z M25.8,63.6h11.1
			c8.6,0,12.9-2.8,12.9-8.3c0-5.4-4.6-8.3-13.6-8.3H25.8V63.6z"/>
		<path d="M106.4,42.4c-1-3.3-3.4-5.3-6.6-5.3c-7.5,0-14.7,5.6-14.7,15.7v10.8h14.5v8.3H67.3v-8.3h9.2v-25h-7.2v-8.3H85v7
			c2.6-4.9,8-8.4,15.2-8.4c8,0,13,4.6,14.5,11.1L106.4,42.4z"/>
		<path d="M150.4,47.7v-2.3c0-5.9-4.7-8.3-9.8-8.3c-4.8,0-8.9,2-12.2,5l-5.7-6.2c3.9-3.6,9.5-6.9,17.9-6.9
			c10.5,0,18.6,5.6,18.6,16.1v18.6h6.1v8.3h-14.9v-4.4c-2.2,3.6-8.3,5.8-14.3,5.8c-8.6,0-16-4.4-16-13.1c0-10.3,10.1-14.2,19.3-14.2
			C143.9,46,147.6,46.9,150.4,47.7z M150.4,55.1c-2.7-1-6.8-1.8-10.7-1.8c-5.5,0-10.8,1.8-10.8,6.7c0,3.7,3.3,5.5,7.9,5.5
			c6.4,0,13.5-3.4,13.5-9.3V55.1z"/>
		<path d="M217.5,63.6v8.3h-42v-8.3h17.4v-25h-13.3v-8.3h21.9v33.3H217.5z M201.5,22h-9.7V9.3h9.7V22z"/>
		<path d="M227.9,63.6h6.4v-25h-6v-8.3h14.5v5.4c2.5-4.1,7.8-6.7,14.3-6.7c9.3,0,15.9,5.9,15.9,15.4v19.4h6.4v8.3h-21.6v-8.3h6.6
			v-17c0-7.2-4.4-9.3-8.4-9.3c-6.6,0-13.1,4.9-13.1,12.4v13.9h6.6v8.3h-21.6V63.6z"/>
		<path d="M291.1,38.6h-10.9v-8.3h10.9V15.2h8.6v15.1H320v8.3h-20.2v17.5c0,6.5,4.5,9.1,9.7,9.1c4.9,0,9-2.7,12-5.8l5.8,6
			c-3.8,4.1-9.7,7.9-17.8,7.9c-10.5,0-18.3-5.8-18.3-16.9V38.6z"/>
		<path d="M374.1,42.4c-1-3.3-3.4-5.3-6.6-5.3c-7.5,0-14.7,5.6-14.7,15.7v10.8h14.5v8.3H335v-8.3h9.2v-25H337v-8.3h15.7v7
			c2.6-4.9,8-8.4,15.2-8.4c8,0,13,4.6,14.5,11.1L374.1,42.4z"/>
		<path d="M432,65.6c-4.3,4.5-11.9,7.7-20.4,7.7c-14,0-23.8-9.4-23.8-22.2s9.5-22.2,22.7-22.2c13.1,0,22.3,10.1,22.3,23.8v1.5h-35.9
			c1.5,6.9,7.2,11.1,14.8,11.1c6.3,0,11.6-2.5,14.6-5.8L432,65.6z M397.3,46.8h25.6c-1.3-6-6.6-10-12.4-10
			C403.9,36.8,398.8,40.9,397.3,46.8z"/>
		<path d="M485.5,65.6c-4.3,4.5-11.9,7.7-20.4,7.7c-14,0-23.8-9.4-23.8-22.2s9.5-22.2,22.7-22.2c13.1,0,22.3,10.1,22.3,23.8v1.5
			h-35.9c1.5,6.9,7.2,11.1,14.8,11.1c6.3,0,11.6-2.5,14.6-5.8L485.5,65.6z M450.8,46.8h25.6c-1.3-6-6.6-10-12.4-10
			C457.4,36.8,452.3,40.9,450.8,46.8z"/>
	</g>
</g>
</svg>
