<?xml version="1.0" encoding="utf-8"?>
<!-- Generator: Adobe Illustrator 19.0.0, SVG Export Plug-In . SVG Version: 6.00 Build 0)  -->
<!DOCTYPE svg PUBLIC "-//W3C//DTD SVG 1.1//EN" "http://www.w3.org/Graphics/SVG/1.1/DTD/svg11.dtd">
<svg version="1.1" id="logo" xmlns="http://www.w3.org/2000/svg" xmlns:xlink="http://www.w3.org/1999/xlink" x="0px" y="0px"
	 viewBox="0 0 1000.5 144.9" enable-background="new 0 0 1000.5 144.9" xml:space="preserve">
<g id="symbols">
	<path id="XMLID_27_" fill-rule="evenodd" clip-rule="evenodd" fill="#D84455" d="M708.7,0h-5c-0.4,0-0.7,0.3-0.8,0.6l-39,143.2
		c-0.1,0.5,0.3,1.1,0.8,1.1h5c0.4,0,0.7-0.3,0.8-0.6l39-143.2C709.7,0.5,709.3,0,708.7,0z"/>
	<path id="XMLID_26_" fill-rule="evenodd" clip-rule="evenodd" fill="#D84455" d="M386.6,0h-5c-0.4,0-0.7,0.3-0.8,0.6l-39,143.2
		c-0.1,0.5,0.3,1.1,0.8,1.1h5c0.4,0,0.7-0.3,0.8-0.6l39-143.2C387.6,0.5,387.2,0,386.6,0z"/>
	<path id="XMLID_25_" fill-rule="evenodd" clip-rule="evenodd" fill="#D84455" d="M68.8,38.1v-5.4c0-0.6-0.7-1-1.3-0.7L0.4,71.5
		C0.2,71.7,0,72,0,72.3v6.3c0,0.3,0.2,0.6,0.4,0.7l67.1,39.6c0.6,0.3,1.3-0.1,1.3-0.7v-5.6c0-0.3-0.2-0.6-0.4-0.7L6.5,75.1
		l61.8-36.3C68.6,38.7,68.8,38.4,68.8,38.1z"/>
	<path id="XMLID_24_" fill-rule="evenodd" clip-rule="evenodd" fill="#D84455" d="M932.2,38.8l62.3,37l0.4-0.7h-0.8v0.7h0.8
		l-0.4-0.7l-62.3,36.8c-0.3,0.1-0.4,0.4-0.4,0.7v5.6c0,0.6,0.7,1,1.3,0.7l67.1-39.6c0.3-0.1,0.4-0.4,0.4-0.7v-6.3
		c0-0.3-0.2-0.6-0.4-0.7L933,31.9c-0.6-0.3-1.3,0.1-1.3,0.7v5.4C931.8,38.4,931.9,38.7,932.2,38.8z"/>
</g>
<g id="words">
	<polygon id="XMLID_3_" points="155.2,117.4 134.7,32.4 128.2,32.4 107.9,117.5 88.2,32.4 81,32.4 102.6,125 102.7,125.4 
		112.9,125.4 131.5,48 150.1,125.4 160.3,125.4 181.9,32.4 174.9,32.4 	"/>
	<path id="XMLID_45_" d="M190.7,35.8c-2.3,2.2-3.5,5-3.5,8.2v81.4h7V44c0-1.3,0.5-1.9,1.4-2.7c0.9-0.9,2-0.8,3.3-0.8h18.3v-8h-18.3
		C195.8,32.4,193,33.6,190.7,35.8z"/>
	<rect id="XMLID_46_" x="224.2" y="32.4" width="7" height="93"/>
	<rect id="XMLID_47_" x="224.2" y="-0.6" width="7" height="16"/>
	<polygon id="XMLID_48_" points="265.2,0.4 258.2,0.4 258.2,32.4 238.2,32.4 238.2,40.4 258.2,40.4 258.2,125.4 265.2,125.4 
		265.2,40.4 283.2,40.4 283.2,32.4 265.2,32.4 	"/>
	<path id="XMLID_51_" d="M325.3,32.4h-24.1c-3.1,0-5.6,1.2-7.8,3.4c-2.3,2.2-3.2,5-3.2,8.2v70.6c0,3.2,0.9,5.6,3.2,7.8
		c2.3,2.2,4.7,3,7.8,3h24.1c3.3,0,6.2-0.8,8.4-3c2.2-2.2,3.5-4.6,3.5-7.8V97.4h-7v17.2c0,1.3-0.6,2-1.5,2.9
		c-0.9,0.9-2.1,0.9-3.4,0.9h-24.1c-1.2,0-2.5-0.1-3.4-0.9c-0.9-0.9-1.6-1.6-1.6-2.9V83.4h41V44c0-3.2-1.3-6-3.5-8.2
		C331.5,33.6,328.5,32.4,325.3,32.4z M330.2,75.4h-34V44c0-1.3,0.7-1.9,1.6-2.7c0.9-0.9,2.2-0.8,3.4-0.8h24.1c1.3,0,2.6,0,3.4,0.8
		c0.8,0.8,1.4,1.4,1.4,2.8V75.4z"/>
	<path id="XMLID_52_" d="M425.5,32.4h-25.8c-3.1,0-5.3,1.2-7.6,3.4c-2.3,2.2-2.9,5-2.9,8.2v29.3l41,12v29.4c0,1.3-0.6,2.1-1.4,2.9
		c-0.8,0.8-2,0.9-3.4,0.9h-25.8c-1.2,0-1.8-0.1-2.7-0.9c-0.9-0.9-0.8-1.6-0.8-2.9V97.4h-7v17.2c0,3.2,0.7,5.6,2.9,7.8
		c2.3,2.2,4.5,3,7.6,3h25.8c3.1,0,5.9-0.8,8.2-3c2.3-2.2,3.6-4.6,3.6-7.8V80l-41-12V44c0-1.3,0-1.9,0.8-2.7c0.9-0.9,1.4-0.8,2.7-0.8
		h25.8c1.3,0,2.5,0,3.4,0.8s1.4,1.4,1.4,2.8v14.4h7V44c0-3.2-1.3-6-3.6-8.2C431.4,33.6,428.5,32.4,425.5,32.4z"/>
	<path id="XMLID_55_" d="M481.3,32.4h-37.1v133h7v-43.9c2,3,7,3.9,11.9,3.9h18.2c3.1,0,5.5-0.8,7.7-3c2.3-2.2,3.1-4.6,3.1-7.8V44
		c0-3.2-0.9-6-3.1-8.2C486.8,33.6,484.4,32.4,481.3,32.4z M485.2,114.6c0,1.3-0.1,2-1,2.9c-0.9,0.9-1.6,0.9-2.8,0.9h-18.2
		c-3.4,0-6-0.9-8.5-3.4c-2.5-2.5-3.4-5-3.4-8.5V40.4h30.1c1.2,0,2,0,2.9,0.8c0.9,0.8,1,1.4,1,2.8V114.6z"/>
	<path id="XMLID_58_" d="M535.1,32.4H511c-3.1,0-5.5,1.2-7.7,3.4c-2.3,2.2-3.1,5-3.1,8.2v70.6c0,3.2,0.8,5.6,3.1,7.8
		c2.3,2.2,4.6,3,7.7,3h24.1c3.3,0,5.8-0.8,8-3c2.2-2.2,3.1-4.6,3.1-7.8V97.4h-7v17.2c0,1.3-0.2,2-1,2.9c-0.9,0.9-1.7,0.9-3,0.9H511
		c-1.2,0-1.9-0.1-2.8-0.9c-0.9-0.9-1-1.6-1-2.9V83.4h39V44c0-3.2-0.9-6-3.1-8.2C540.9,33.6,538.3,32.4,535.1,32.4z M539.2,75.4h-32
		V44c0-1.3,0.1-1.9,1-2.7c0.9-0.9,1.6-0.8,2.8-0.8h24.1c1.3,0,2.2,0,3,0.8c0.8,0.8,1,1.4,1,2.8V75.4z"/>
	<path id="XMLID_61_" d="M588.9,32.4h-35.7v8h35.7c1.3,0,2.3,0,3.1,0.8c0.8,0.8,1.1,1.4,1.1,2.8v21.4h-28.4c-3.1,0-5.9,1.2-8.1,3.4
		s-3.5,5-3.5,8.2v37.5c0,3.2,1.2,5.6,3.5,7.8c2.3,2.2,5,3,8.1,3h35.4V44c0-3.2-1-6-3.2-8.2C594.8,33.6,592.1,32.4,588.9,32.4z
		 M593.2,118.4h-28.4c-1.2,0-2.3-0.1-3.2-0.9c-0.9-0.9-1.4-1.6-1.4-2.9V77.1c0-1.3,0.5-2.4,1.4-3.3c0.9-0.9,2-1.3,3.2-1.3h28.4
		V118.4z"/>
	<polygon id="XMLID_62_" points="656.2,32.4 647.5,32.4 614.2,76.9 614.2,-13.6 607.2,-13.6 607.2,125.4 614.2,125.4 614.2,88.5 
		627,70.8 652.9,125.4 660.6,125.4 631.8,64.7 	"/>
	<path id="XMLID_63_" d="M743.9,32.4h-24.1c-3.1,0-5.3,1.2-7.6,3.4c-2.3,2.2-3,5-3,8.2v70.6c0,3.2,0.7,5.6,3,7.8
		c2.3,2.2,4.5,3,7.6,3h24.1c3.3,0,5.9-0.8,8.1-3c2.2-2.2,3.2-4.6,3.2-7.8V93.4h-7v21.2c0,1.3-0.3,2-1.2,2.9
		c-0.9,0.9-1.8,0.9-3.2,0.9h-24.1c-1.2,0-1.8-0.1-2.7-0.9c-0.9-0.9-0.9-1.6-0.9-2.9V44c0-1.3,0-1.9,0.9-2.7c0.9-0.9,1.5-0.8,2.7-0.8
		h24.1c1.3,0,2.3,0,3.2,0.8c0.8,0.8,1.2,1.4,1.2,2.8v17.4h7V44c0-3.2-1-6-3.2-8.2C749.8,33.6,747.1,32.4,743.9,32.4z"/>
	<path id="XMLID_66_" d="M799.9,32.4h-26.3c-3.1,0-5.7,1.2-8,3.4c-2.3,2.2-3.4,5-3.4,8.2v70.6c0,3.2,1.1,5.6,3.4,7.8
		c2.3,2.2,4.9,3,8,3h26.3c3.1,0,5.7-0.8,8-3c2.3-2.2,3.4-4.6,3.4-7.8V44c0-3.2-1.1-6-3.4-8.2C805.6,33.6,802.9,32.4,799.9,32.4z
		 M804.2,114.6c0,1.3-0.4,2-1.3,2.9c-0.9,0.9-1.9,0.9-3.1,0.9h-26.3c-1.2,0-1.7-0.1-2.6-0.9c-0.9-0.9-0.8-1.6-0.8-2.9V44
		c0-1.3-0.1-1.9,0.8-2.7c0.9-0.9,1.4-0.8,2.6-0.8h26.3c1.2,0,2.2,0,3.1,0.8c0.9,0.8,1.3,1.4,1.3,2.8V114.6z"/>
	<path id="XMLID_69_" d="M857.2,32.4h-27.7c-3.1,0-5.7,1.2-8,3.4c-2.3,2.2-3.4,5-3.4,8.2v70.6c0,3.2,1.1,5.6,3.4,7.8
		c2.3,2.2,4.9,3,8,3h34.7v-139h-7V32.4z M857.2,118.4h-27.7c-1.2,0-2.2-0.1-3.1-0.9c-0.9-0.9-1.3-1.6-1.3-2.9V44
		c0-1.3,0.4-1.9,1.3-2.7c0.9-0.9,1.9-0.8,3.1-0.8h27.7V118.4z"/>
	<path id="XMLID_72_" d="M918.2,83.4V44c0-3.2-0.8-6-3-8.2c-2.2-2.2-4.6-3.4-7.8-3.4h-24.1c-3.1,0-5.6,1.2-7.9,3.4
		c-2.3,2.2-3.2,5-3.2,8.2v70.6c0,3.2,1,5.6,3.2,7.8c2.3,2.2,4.8,3,7.9,3h24.1c3.3,0,5.7-0.8,7.9-3c2.2-2.2,2.9-4.6,2.9-7.8V97.4h-7
		v17.2c0,1.3,0,2-0.9,2.9c-0.9,0.9-1.5,0.9-2.9,0.9h-24.1c-1.2,0-2.1-0.1-3-0.9c-0.9-0.9-1.1-1.6-1.1-2.9V83.4H918.2z M879.2,44
		c0-1.3,0.3-1.9,1.1-2.7c0.9-0.9,1.8-0.8,3-0.8h24.1c1.3,0,2,0,2.9,0.8c0.8,0.8,0.9,1.4,0.9,2.8v31.4h-32V44z"/>
</g>
</svg>
